<svg xmlns="http://www.w3.org/2000/svg" xmlns:xlink="http://www.w3.org/1999/xlink" width="221.655" height="49.999" viewBox="0 0 221.655 49.999">
  <defs>
    <linearGradient id="linear-gradient" x1="0.5" x2="0.5" y2="1" gradientUnits="objectBoundingBox">
      <stop offset="0" stop-color="#e5e5e5"/>
      <stop offset="1" stop-color="#fff"/>
    </linearGradient>
  </defs>
  <g id="Anduril_sword" data-name="Anduril sword" transform="translate(-141 -511)">
    <g id="Silver_sword" data-name="Silver sword">
      <path id="Light_side" data-name="Light side" d="M34.886,10,0,5,34.886,0H185V10Z" transform="translate(141 531)" fill="#f5f5f5"/>
      <g id="First_part_sword" data-name="First part sword">
        <path id="Darkside" d="M185,5H34.88L0,0,185,0V5Z" transform="translate(141 536)" fill="#e5e5e5"/>
      </g>
      <path id="Middle" d="M144,0l5.5,2.5L144,5ZM7,5V0H144V5ZM0,2.5,7,0V5Z" transform="translate(166.5 533.5)" fill="url(#linear-gradient)"/>
      <text id="Nanye_Andúril_i_ne_Narsil_i_macil_Elendilo._Lercuvanten_i_mali_Mordoreo" data-name="Nanye Andúril i ne Narsil i macil Elendilo. Lercuvanten i mali Mordoreo" transform="translate(178 535)" fill="#cecece" font-size="2" font-family="Hobbitonbrush, Hobbiton Brushhand Hobbiton brush"><tspan x="0" y="2">Nanye And</tspan><tspan y="2" font-family="SegoeUI, Segoe UI">ú</tspan><tspan y="2">ril i ne Narsil i macil Elendilo. Lercuvanten i mali Mordoreo</tspan></text>
      <text id="Nanye_Andúril_i_ne_Narsil_i_macil_Elendilo._Lercuvanten_i_mali_Mordoreo-2" data-name="Nanye Andúril i ne Narsil i macil Elendilo. Lercuvanten i mali Mordoreo" transform="translate(245 535)" fill="#cecece" font-size="2" font-family="Hobbitonbrush, Hobbiton Brushhand Hobbiton brush"><tspan x="0" y="2">Nanye And</tspan><tspan y="2" font-family="SegoeUI, Segoe UI">ú</tspan><tspan y="2">ril i ne Narsil i macil Elendilo. Lercuvanten i mali Mordoreo</tspan></text>
    </g>
    <g id="Handle_on_sword" data-name="Handle on sword" transform="translate(0 1)">
      <path id="Polygon_6" data-name="Polygon 6" d="M4.067,2.427a1,1,0,0,1,1.867,0l3.544,9.214A1,1,0,0,1,8.544,13H1.456a1,1,0,0,1-.933-1.359Z" transform="translate(314 540) rotate(-90)" fill="#b2b1aa"/>
      <circle id="Ellipse_2" data-name="Ellipse 2" cx="0.5" cy="0.5" r="0.5" transform="translate(316.053 534.5)" fill="#daa520"/>
    </g>
    <rect id="Rect" width="5" height="11" transform="translate(325 530.5)" fill="#b2b1aa"/>
    <g id="Rect-2" data-name="Rect">
      <rect id="Rectangle_14" data-name="Rectangle 14" width="3" height="15" transform="translate(326 541.5)" fill="#b2b1aa"/>
      <path id="Polygon_7" data-name="Polygon 7" d="M.666,0l.666,1H0Z" transform="translate(325.642 540.689) rotate(40)" fill="#b2b1aa"/>
      <path id="Polygon_8" data-name="Polygon 8" d="M.666,0l.666,1H0Z" transform="translate(328.337 541.545) rotate(-40)" fill="#b2b1aa"/>
    </g>
    <g id="Rect-3" data-name="Rect" transform="translate(655 1072) rotate(180)">
      <rect id="Rectangle_14-2" data-name="Rectangle 14" width="3" height="15" transform="translate(326 541.5)" fill="#b2b1aa"/>
      <path id="Polygon_7-2" data-name="Polygon 7" d="M.666,0l.666,1H0Z" transform="translate(325.642 540.689) rotate(40)" fill="#b2b1aa"/>
      <path id="Polygon_8-2" data-name="Polygon 8" d="M.666,0l.666,1H0Z" transform="translate(328.337 541.545) rotate(-40)" fill="#b2b1aa"/>
    </g>
    <g id="Round_halde_2" data-name="Round halde 2">
      <path id="Exclusion_1" data-name="Exclusion 1" d="M3.5,6h0L0,3A3.542,3.542,0,0,1,7,3L3.5,6Z" transform="translate(324 511)" fill="#b2b1aa"/>
      <path id="Exclusion_2" data-name="Exclusion 2" d="M2,3H2L0,1.5A1.959,1.959,0,0,1,2,0,1.959,1.959,0,0,1,4,1.5L2,3Z" transform="translate(325.5 512)" fill="#daa520"/>
      <path id="Exclusion_3" data-name="Exclusion 3" d="M1,2H1L0,1A1.074,1.074,0,0,1,1,0,1.074,1.074,0,0,1,2,1L1,2Z" transform="translate(326.501 512.5)" fill="#fafad2"/>
    </g>
    <g id="Round_handle_1" data-name="Round handle 1" transform="translate(655 1072) rotate(180)">
      <path id="Exclusion_1-2" data-name="Exclusion 1" d="M3.5,6h0L0,3A3.542,3.542,0,0,1,7,3L3.5,6Z" transform="translate(324 511)" fill="#b2b1aa"/>
      <path id="Exclusion_2-2" data-name="Exclusion 2" d="M2,3H2L0,1.5A1.959,1.959,0,0,1,2,0,1.959,1.959,0,0,1,4,1.5L2,3Z" transform="translate(325.5 512)" fill="#daa520"/>
      <path id="Exclusion_3-2" data-name="Exclusion 3" d="M1,2H1L0,1A1.074,1.074,0,0,1,1,0,1.074,1.074,0,0,1,2,1L1,2Z" transform="translate(326.501 512.5)" fill="#fafad2"/>
    </g>
    <g id="Black_handle" data-name="Black handle">
      <g id="Group_7" data-name="Group 7" transform="translate(886.061 168.5) rotate(90)">
        <g id="Group_5" data-name="Group 5" transform="translate(695 1084.405) rotate(180)">
          <rect id="Rectangle_14-3" data-name="Rectangle 14" width="3" height="15" transform="translate(326 541.5)" fill="#b2b1aa"/>
          <path id="Polygon_7-3" data-name="Polygon 7" d="M.666,0l.666,1H0Z" transform="translate(325.642 540.689) rotate(40)" fill="#b2b1aa"/>
          <path id="Polygon_8-3" data-name="Polygon 8" d="M.666,0l.666,1H0Z" transform="translate(328.337 541.545) rotate(-40)" fill="#b2b1aa"/>
        </g>
        <g id="Group_6" data-name="Group 6" transform="translate(40 12.405)">
          <path id="Exclusion_1-3" data-name="Exclusion 1" d="M3.5,6h0L0,3A3.542,3.542,0,0,1,7,3L3.5,6Z" transform="translate(324 511)" fill="#b2b1aa"/>
          <path id="Exclusion_2-3" data-name="Exclusion 2" d="M2,3H2L0,1.5A1.959,1.959,0,0,1,2,0,1.959,1.959,0,0,1,4,1.5L2,3Z" transform="translate(325.5 512)" fill="#daa520"/>
          <path id="Exclusion_3-3" data-name="Exclusion 3" d="M1,2H1L0,1A1.074,1.074,0,0,1,1,0,1.074,1.074,0,0,1,2,1L1,2Z" transform="translate(326.501 512.5)" fill="#fafad2"/>
        </g>
      </g>
      <rect id="Black_Handle-2" data-name="Black Handle" width="28" height="6" rx="3" transform="translate(326 533)"/>
      <rect id="Rectangle_18" data-name="Rectangle 18" width="1" height="6" transform="translate(332 533)" fill="#141414"/>
      <rect id="Rectangle_19" data-name="Rectangle 19" width="1" height="6" transform="translate(335 533)" fill="#141414"/>
      <rect id="Rectangle_20" data-name="Rectangle 20" width="1" height="6" transform="translate(338 533)" fill="#141414"/>
      <rect id="Rectangle_21" data-name="Rectangle 21" width="1" height="6" transform="translate(341 533)" fill="#141414"/>
      <rect id="Rectangle_22" data-name="Rectangle 22" width="1" height="6" transform="translate(344 533)" fill="#141414"/>
      <rect id="Rectangle_23" data-name="Rectangle 23" width="1" height="6" transform="translate(347 533)" fill="#141414"/>
      <rect id="Rectangle_24" data-name="Rectangle 24" width="1" height="6" transform="translate(350 533)" fill="#141414"/>
    </g>
  </g>
</svg>
